<svg width="571.95" height="384.05" version="1.1" viewBox="0 0 151.33 101.61" xmlns="http://www.w3.org/2000/svg"><path fill="currentColor" d="m110.19 0v52.969h10.525v-29.374h19.399v29.374h10.525v-29.924c0-1.7886-0.45892-3.4398-1.3761-4.9532s-2.1324-2.7286-3.6458-3.6458c-1.5134-0.91722-3.1646-1.3756-4.9532-1.3756h-19.949v-13.071zm-90.717 0.01447c-3.5748 0-6.8201 0.94057-9.7364 2.822-2.9163 1.7874-5.2685 4.1866-7.0559 7.197-1.7874 2.9163-2.681 6.2085-2.681 9.8774v61.383c0 3.4807 0.89357 6.7735 2.681 9.878 1.7874 3.1044 4.1396 5.6441 7.0559 7.6197 2.9163 1.8815 6.1615 2.8226 9.7364 2.8226h61.665c3.5748 0 6.8206-0.94109 9.7369-2.8226 2.9163-1.9756 5.268-4.5152 7.0554-7.6197 1.7874-3.1044 2.6815-6.3972 2.6815-9.878v-61.383c0-3.6689-0.89408-6.9611-2.6815-9.8774-1.7874-3.0104-4.1391-5.4096-7.0554-7.197-2.9163-1.8815-6.1621-2.822-9.7369-2.822zm0.7059 18.909h53.481l-55.174 46.002v-44.308c0-0.47037 0.14101-0.84691 0.42323-1.1291 0.3763-0.3763 0.79984-0.56431 1.2702-0.5643zm61.948 17.215v44.309c0 0.47037-0.18801 0.8934-0.56431 1.2697-0.28222 0.28222-0.65876 0.42375-1.1291 0.42375h-53.481zm28.063 25.37v3.4396l13.758 16.166-13.758 16.854v3.4396h10.8l9.7684-11.97 9.7684 11.97h10.8v-3.4396l-13.758-16.854 13.758-16.166v-3.4396h-10.869l-9.6997 11.557-9.7684-11.557z" stroke-width=".26458"/></svg>
